<svg width="226" height="219" viewBox="0 0 226 219" fill="none" xmlns="http://www.w3.org/2000/svg">
<path d="M220.35 122.043C216.755 122.043 214.186 123.787 213.159 126.402H119.677V103.299H171.041C172.068 105.914 175.15 107.658 178.232 107.658C182.341 107.658 185.936 104.606 185.936 101.119C185.936 97.6317 182.341 94.5803 178.232 94.5803C174.636 94.5803 172.068 96.324 171.041 98.9395H119.677V77.5799H202.886L203.4 65.3745C206.995 64.9386 209.564 61.8872 209.564 58.8358C209.564 55.3485 205.968 52.2971 201.859 52.2971C197.75 52.2971 194.155 55.3485 194.155 58.8358C194.155 61.4513 195.695 63.6308 198.264 64.5026V73.2208H119.677V50.1176H147.414V23.5268C150.496 22.655 152.55 20.0397 152.55 17.4242C152.55 13.9369 148.955 10.8856 144.846 10.8856C140.736 10.8856 137.141 13.9369 137.141 17.4242C137.141 20.4756 139.195 22.655 142.277 23.5268V45.7585H119.677V24.3987C119.677 11.3214 107.35 0.859375 91.9409 0.859375C90.9136 0.859375 89.8864 0.859375 89.3727 0.859375C88.8591 0.859375 88.8591 0.859375 88.3455 0.859375C87.8318 0.859375 87.8319 0.859375 87.3182 0.859375C86.2909 0.859375 85.2636 1.29545 84.2364 1.29545C83.7227 1.29545 82.6955 1.73125 82.1818 1.73125C81.6682 1.73125 81.1545 2.16722 80.1273 2.60313C79.1 3.03904 78.0728 3.4749 77.0455 3.91081C76.5318 4.34672 76.0182 4.34677 75.5046 4.78268C74.4773 5.2186 73.9636 6.09053 72.9364 6.52644C72.4227 6.96235 71.9091 7.39821 71.3955 7.83412C70.8818 8.27003 70.3682 8.70589 69.8545 9.1418C69.3409 9.57771 68.8273 10.4495 68.3137 11.3214C67.8 11.7573 67.8 12.1931 67.2863 12.629C66.7727 13.5009 66.2591 14.3728 65.7455 15.2447C65.7455 15.6806 65.2318 16.1164 65.2318 16.5523C64.7182 17.4242 64.7182 18.2959 64.2046 19.1677C64.2046 19.6036 64.2045 20.0396 63.6909 20.9115C63.6909 21.7833 63.691 22.655 63.1773 23.5268C63.1773 23.9627 63.1773 23.9628 63.1773 24.3987C63.1773 25.2705 63.1773 25.7064 63.1773 26.5783V27.0141V27.4501C59.5819 27.886 55.9864 28.322 52.3909 29.6297C51.8773 29.6297 51.3636 30.0655 50.85 30.0655C49.8227 30.5014 48.7955 30.5015 47.7682 30.9374C47.7682 30.9374 47.7682 30.9374 47.2545 30.9374C29.7909 37.476 17.9773 52.2971 17.9773 69.7336C17.9773 73.6568 18.4909 77.144 19.5182 81.0672C7.19093 90.6572 0 104.17 0 118.555C0 133.812 8.2182 148.197 22.0864 157.787C21.5728 159.531 21.0591 160.839 21.0591 162.583C21.0591 163.455 20.5455 164.326 20.5455 165.198C20.5455 165.634 20.5455 166.07 20.5455 166.07C20.5455 181.763 33.9 194.84 51.8772 197.891C55.9863 210.097 68.8273 218.379 84.2364 218.379C101.7 218.379 116.082 207.045 117.623 192.66C117.623 192.225 117.623 192.225 117.623 191.789C117.623 191.353 117.623 190.481 117.623 190.045V180.019H149.468V195.712C146.386 196.584 144.332 199.199 144.332 201.815C144.332 205.302 147.927 208.353 152.036 208.353C156.145 208.353 159.741 205.302 159.741 201.815C159.741 198.763 157.686 196.584 154.605 195.712V175.66H117.623V152.993H178.232V165.634C175.15 166.506 173.095 169.121 173.095 171.737C173.095 175.224 176.691 178.275 180.8 178.275C184.909 178.275 188.505 175.224 188.505 171.737C188.505 168.685 186.45 166.506 183.368 165.634V148.633H117.623V131.197H211.105C212.132 133.812 215.214 135.556 218.295 135.556C222.405 135.556 226 132.505 226 129.017C226 125.53 224.459 122.043 220.35 122.043ZM58.5545 195.276L58.0409 193.968H56.5C40.0637 192.225 28.25 180.455 28.25 166.506C28.25 165.198 28.25 163.89 28.7636 162.583C29.2772 160.403 30.8182 158.224 32.8727 156.044C35.9545 153.429 39.55 152.121 43.6591 152.121C47.7682 152.121 51.3636 153.428 54.4454 155.608C57.5272 158.223 59.0682 161.275 59.0682 164.762H64.2046C64.2046 159.967 62.15 156.044 58.0409 152.557C53.9319 149.069 49.3091 147.762 43.6591 147.762C38.0091 147.762 33.3864 149.505 29.2773 152.993C28.7636 153.428 28.7636 153.864 28.25 154.3C15.4091 145.582 7.70455 132.505 7.70455 118.555C7.70455 105.914 13.8682 94.1445 24.6546 85.4263C27.7364 92.4009 33.3864 98.5036 40.0637 103.299C33.3864 105.478 28.25 111.145 28.25 117.684C28.25 126.402 36.4682 132.941 46.2273 132.941V128.582C39.0364 128.582 33.3864 123.787 33.3864 117.684C33.3864 111.581 39.0363 106.786 45.7136 106.786C52.9045 110.273 60.6091 112.453 69.3409 112.453V108.094C49.3091 107.658 31.8455 95.8882 27.2228 78.8876C26.1955 74.5285 25.6818 70.6054 26.1954 66.6822C27.7363 62.3231 32.8727 59.7074 38.0091 59.7074C45.2 59.7074 50.85 64.5024 50.85 70.6052H55.9864C55.9864 62.3229 47.7682 55.3483 38.0091 55.3483C34.4136 55.3483 31.3318 56.2203 28.25 57.9639C31.3318 50.1175 38.0091 43.1429 46.7409 38.3479C47.2545 37.912 47.7682 37.476 48.7955 37.476H49.3091C54.4454 35.2965 60.0954 33.5528 66.2591 33.1169C67.8 36.6042 69.8546 39.6555 73.45 42.271C71.9091 44.8864 70.8819 47.502 70.8819 50.5534C70.8819 55.3484 72.9364 59.7075 77.0455 62.7589L80.6409 59.7074C77.5591 57.092 76.0182 54.0407 76.0182 50.5534C76.0182 47.0661 77.5591 43.5789 80.6409 41.3994C86.2909 36.6043 96.5636 36.6043 102.214 41.3994L105.809 38.3479C98.1045 31.8092 84.2364 31.8092 76.5318 38.3479L76.0182 38.7837C73.45 36.1683 71.3955 33.5528 70.3682 30.0655C70.3682 29.6296 70.3682 29.6295 70.3682 29.1936V28.7578C70.3682 27.886 69.8545 26.5782 69.8545 25.7064C69.8545 23.0909 70.3682 20.4754 71.3955 18.2958C71.9091 17.424 72.4228 16.1165 73.45 15.2447C73.45 15.2447 73.45 15.2445 73.45 14.8086C73.9637 13.9368 74.9909 13.0651 76.0182 12.1932C76.0182 12.1932 76.5318 12.1931 76.5318 11.7572C77.5591 10.8853 78.5864 10.4494 79.6137 9.5776C79.6137 9.5776 80.1273 9.57771 80.1273 9.1418C81.1545 8.70589 82.1818 8.27003 83.2091 7.83412C83.2091 7.83412 83.7228 7.83396 83.7228 7.39805C84.75 6.96214 85.7773 6.52644 87.3182 6.52644C87.8319 6.52644 87.8318 6.52644 88.3455 6.52644C89.8864 6.09053 90.9137 6.09037 92.4546 6.09037C104.782 6.09037 115.055 14.8087 115.055 25.2706V87.6059C115.055 95.0164 107.864 101.119 99.1319 101.119C90.4 101.119 83.2091 95.0164 83.2091 87.6059H78.0727C78.0727 97.1959 87.3182 105.478 99.1319 105.478C105.296 105.478 110.946 102.863 115.055 99.3755V174.788C111.973 170.429 107.35 166.942 101.7 164.326C101.7 163.89 101.7 163.454 101.7 163.018C101.7 151.685 90.9137 142.967 78.0727 142.967V147.326C88.3455 147.326 96.5637 154.3 96.5637 163.018C96.5637 171.737 88.3455 178.711 78.0727 178.711V183.071C88.8591 183.071 98.1045 176.968 100.673 168.685C109.405 173.044 115.055 180.891 115.055 189.609C115.055 202.251 103.241 212.713 88.3455 213.584C87.8318 213.584 87.3182 213.584 86.8045 213.584C72.9364 214.02 61.1227 206.61 58.5545 195.276Z" fill="white"/>
</svg>
