<svg width="234" height="195" viewBox="0 0 234 195" fill="none" xmlns="http://www.w3.org/2000/svg">
<path opacity="0.1" d="M36.6015 33.6843L81.8455 19.1152L86.8386 57.999L106.913 126.021L140.031 158.014L137.076 164.905H111.499C111.499 164.905 104.162 194.043 76.7504 194.043C50.1543 194.043 44.7536 174.06 44.7536 174.06L34.4616 171.795L32.6273 160.376L11.4319 150.237L1.34375 121.099L11.4319 91.9607V62.8225L36.6015 33.6843Z" fill="white"/>
<path fill-rule="evenodd" clip-rule="evenodd" d="M51.9697 163.231C51.9697 162.461 52.6163 161.836 53.414 161.836H134.323C135.121 161.836 135.768 162.461 135.768 163.231C135.768 164.002 135.121 164.626 134.323 164.626H53.414C52.6163 164.626 51.9697 164.002 51.9697 163.231Z" fill="white"/>
<path fill-rule="evenodd" clip-rule="evenodd" d="M29.007 42.1137C29.6458 42.575 29.7766 43.4493 29.2991 44.0665L14.5052 63.1861V90.6792C14.5052 90.8579 14.4697 91.0348 14.4006 91.2005L2.98284 118.582L14.2739 151.113L31.1885 162.071C31.851 162.5 32.0279 163.367 31.5836 164.006C31.1394 164.646 30.2422 164.817 29.5797 164.388L12.2566 153.166C11.9917 152.994 11.793 152.743 11.6916 152.451L0.0749215 118.981C-0.034334 118.666 -0.0238084 118.324 0.104607 118.016L11.6167 90.4088V62.7223C11.6167 62.4212 11.7175 62.1282 11.9042 61.887L26.9855 42.3959C27.463 41.7787 28.3681 41.6524 29.007 42.1137Z" fill="white"/>
<path fill-rule="evenodd" clip-rule="evenodd" d="M129.951 12.3653C130.038 13.1312 129.466 13.8206 128.674 13.9051L82.6863 18.8086L47.4908 31.2524C46.7418 31.5172 45.9123 31.1453 45.6382 30.4217C45.364 29.6981 45.749 28.8969 46.4981 28.632L81.8577 16.1302C81.9667 16.0916 82.0802 16.0659 82.1956 16.0536L128.357 11.1316C129.15 11.0471 129.863 11.5994 129.951 12.3653Z" fill="white"/>
<path fill-rule="evenodd" clip-rule="evenodd" d="M150.255 14.9002C150.469 14.1579 151.266 13.7237 152.034 13.9304L204.004 27.9088C204.243 27.9733 204.462 28.0964 204.637 28.2664L227.769 50.6122C228.001 50.836 228.147 51.1293 228.183 51.4438L233.991 101.648C234.022 101.916 233.973 102.186 233.848 102.427L223.862 121.721C223.703 122.028 223.433 122.268 223.102 122.394L197.933 132.041C197.733 132.118 197.518 132.15 197.304 132.137L181.694 131.131L176.179 152.347C176.092 152.682 175.879 152.974 175.583 153.166L158.259 164.388C157.597 164.818 156.7 164.647 156.256 164.007C155.811 163.367 155.988 162.5 156.651 162.071L173.513 151.147L179.186 129.322C179.356 128.668 179.986 128.225 180.683 128.269L197.171 129.331L221.525 119.997L231.073 101.548L225.369 52.2396L202.863 30.4987L151.259 16.6185C150.491 16.4118 150.041 15.6425 150.255 14.9002Z" fill="white"/>
<path fill-rule="evenodd" clip-rule="evenodd" d="M153.145 75.4519C153.86 75.1099 154.727 75.3924 155.081 76.0829L181.881 128.354C182.235 129.045 181.942 129.882 181.227 130.224C180.513 130.566 179.646 130.283 179.292 129.593L152.492 77.3214C152.138 76.6309 152.431 75.7939 153.145 75.4519Z" fill="white"/>
<path fill-rule="evenodd" clip-rule="evenodd" d="M192.556 94.8685C193.312 95.1115 193.722 95.9013 193.471 96.6325L181.956 130.102C181.704 130.833 180.887 131.229 180.13 130.986C179.373 130.743 178.963 129.953 179.215 129.222L190.73 95.7524C190.981 95.0212 191.799 94.6254 192.556 94.8685Z" fill="white"/>
<path fill-rule="evenodd" clip-rule="evenodd" d="M208.769 94.9494C209.48 94.5994 210.349 94.8721 210.712 95.5586L223.857 120.464C224.219 121.15 223.937 121.991 223.226 122.341C222.516 122.691 221.646 122.418 221.284 121.731L208.138 96.8261C207.776 96.1397 208.058 95.2994 208.769 94.9494Z" fill="white"/>
<path fill-rule="evenodd" clip-rule="evenodd" d="M228.042 50.9791C228.396 51.6695 228.103 52.5066 227.389 52.8487L215.874 58.3614C215.159 58.7035 214.293 58.4212 213.939 57.7308C213.584 57.0404 213.877 56.2033 214.591 55.8612L226.106 50.3485C226.821 50.0064 227.687 50.2887 228.042 50.9791Z" fill="white"/>
<path fill-rule="evenodd" clip-rule="evenodd" d="M156.01 68.3346C156.01 67.5641 156.656 66.9395 157.454 66.9395H174.777C175.575 66.9395 176.221 67.5641 176.221 68.3346C176.221 69.1052 175.575 69.7298 174.777 69.7298H157.454C156.656 69.7298 156.01 69.1052 156.01 68.3346Z" fill="white"/>
<path fill-rule="evenodd" clip-rule="evenodd" d="M139.896 22.2668C140.683 22.1416 141.426 22.6564 141.556 23.4167L147.262 56.8863C147.392 57.6466 146.859 58.3644 146.072 58.4897C145.285 58.6149 144.542 58.1 144.412 57.3397L138.706 23.8702C138.576 23.1099 139.109 22.392 139.896 22.2668Z" fill="white"/>
<path fill-rule="evenodd" clip-rule="evenodd" d="M132.478 19.1968C133.05 19.7335 133.063 20.6168 132.508 21.1697L112.23 41.3499C111.674 41.9028 110.76 41.9159 110.187 41.3792C109.615 40.8425 109.601 39.9592 110.157 39.4063L130.435 19.2261C130.991 18.6732 131.905 18.6601 132.478 19.1968Z" fill="white"/>
<path fill-rule="evenodd" clip-rule="evenodd" d="M81.9111 16.1125C82.6703 15.8763 83.484 16.2794 83.7285 17.0128L89.5369 34.4367C89.7814 35.1701 89.3641 35.9562 88.6049 36.1924C87.8456 36.4286 87.0319 36.0255 86.7874 35.292L80.9791 17.8682C80.7346 17.1347 81.1519 16.3487 81.9111 16.1125Z" fill="white"/>
<path fill-rule="evenodd" clip-rule="evenodd" d="M204.828 28.4955C205.262 29.1419 205.071 30.0059 204.402 30.4252L155.388 61.1385C154.718 61.5578 153.824 61.3737 153.39 60.7272C152.956 60.0808 153.147 59.2168 153.816 58.7975L202.83 28.0842C203.499 27.6649 204.394 27.849 204.828 28.4955Z" fill="white"/>
<path fill-rule="evenodd" clip-rule="evenodd" d="M145.839 58.6048C140.277 58.6048 135.768 62.9604 135.768 68.3334C135.768 73.7063 140.277 78.0619 145.839 78.0619C151.401 78.0619 155.909 73.7063 155.909 68.3334C155.909 62.9604 151.401 58.6048 145.839 58.6048ZM132.88 68.3334C132.88 61.4194 138.682 55.8145 145.839 55.8145C152.996 55.8145 158.798 61.4194 158.798 68.3334C158.798 75.2473 152.996 80.8522 145.839 80.8522C138.682 80.8522 132.88 75.2473 132.88 68.3334Z" fill="white"/>
<path fill-rule="evenodd" clip-rule="evenodd" d="M145.839 153.501C140.277 153.501 135.768 157.857 135.768 163.23C135.768 168.603 140.277 172.958 145.839 172.958C151.401 172.958 155.909 168.603 155.909 163.23C155.909 157.857 151.401 153.501 145.839 153.501ZM132.88 163.23C132.88 156.316 138.682 150.711 145.839 150.711C152.996 150.711 158.798 156.316 158.798 163.23C158.798 170.144 152.996 175.749 145.839 175.749C138.682 175.749 132.88 170.144 132.88 163.23Z" fill="white"/>
<path fill-rule="evenodd" clip-rule="evenodd" d="M140.132 2.79038C134.57 2.79038 130.061 7.14598 130.061 12.5189C130.061 17.8918 134.57 22.2474 140.132 22.2474C145.694 22.2474 150.202 17.8918 150.202 12.5189C150.202 7.14598 145.694 2.79038 140.132 2.79038ZM127.173 12.5189C127.173 5.6049 132.975 0 140.132 0C147.289 0 153.091 5.6049 153.091 12.5189C153.091 19.4329 147.289 25.0378 140.132 25.0378C132.975 25.0378 127.173 19.4329 127.173 12.5189Z" fill="white"/>
<path fill-rule="evenodd" clip-rule="evenodd" d="M41.8995 153.501C36.3377 153.501 31.8289 157.857 31.8289 163.23C31.8289 168.603 36.3377 172.958 41.8995 172.958C47.4613 172.958 51.97 168.603 51.97 163.23C51.97 157.857 47.4613 153.501 41.8995 153.501ZM28.9404 163.23C28.9404 156.316 34.7424 150.711 41.8995 150.711C49.0566 150.711 54.8585 156.316 54.8585 163.23C54.8585 170.144 49.0566 175.749 41.8995 175.749C34.7424 175.749 28.9404 170.144 28.9404 163.23Z" fill="white"/>
<path fill-rule="evenodd" clip-rule="evenodd" d="M53.4141 86.4642C47.8523 86.4642 43.3436 90.8198 43.3436 96.1927C43.3436 101.566 47.8523 105.921 53.4141 105.921C58.9759 105.921 63.4847 101.566 63.4847 96.1927C63.4847 90.8198 58.9759 86.4642 53.4141 86.4642ZM40.4551 96.1927C40.4551 89.2787 46.257 83.6738 53.4141 83.6738C60.5712 83.6738 66.3732 89.2787 66.3732 96.1927C66.3732 103.107 60.5712 108.712 53.4141 108.712C46.257 108.712 40.4551 103.107 40.4551 96.1927Z" fill="white"/>
<path fill-rule="evenodd" clip-rule="evenodd" d="M121.791 139.893C122.357 139.351 123.271 139.354 123.833 139.9L138.201 153.879C138.763 154.426 138.76 155.309 138.194 155.852C137.628 156.395 136.714 156.392 136.152 155.845L121.784 141.867C121.222 141.32 121.225 140.436 121.791 139.893Z" fill="white"/>
<path fill-rule="evenodd" clip-rule="evenodd" d="M138.572 75.4243C139.302 75.7336 139.635 76.5564 139.315 77.2622L124.132 110.732C123.812 111.437 122.96 111.759 122.229 111.45C121.499 111.14 121.166 110.317 121.486 109.612L136.669 76.1422C136.989 75.4364 137.841 75.115 138.572 75.4243Z" fill="white"/>
<path fill-rule="evenodd" clip-rule="evenodd" d="M96.6419 78.7633C97.4332 78.666 98.1563 79.2068 98.257 79.9711L101.11 101.628C101.211 102.392 100.651 103.091 99.8599 103.188C99.0686 103.285 98.3455 102.745 98.2448 101.98L95.3916 80.3234C95.2909 79.5591 95.8507 78.8606 96.6419 78.7633Z" fill="white"/>
<path fill-rule="evenodd" clip-rule="evenodd" d="M115.63 59.5223C115.884 58.7918 116.702 58.3981 117.458 58.6431L134.782 64.2541C135.538 64.4991 135.945 65.2899 135.692 66.0205C135.438 66.751 134.62 67.1447 133.863 66.8998L116.54 61.2887C115.784 61.0437 115.376 60.2529 115.63 59.5223Z" fill="white"/>
<path fill-rule="evenodd" clip-rule="evenodd" d="M145.839 78.0625C146.636 78.0625 147.283 78.6871 147.283 79.4577V152.008C147.283 152.778 146.636 153.403 145.839 153.403C145.041 153.403 144.395 152.778 144.395 152.008V79.4577C144.395 78.6871 145.041 78.0625 145.839 78.0625Z" fill="white"/>
<path fill-rule="evenodd" clip-rule="evenodd" d="M111.191 161.836C111.989 161.836 112.635 162.461 112.635 163.231C112.635 171.785 107.906 179.123 101.102 184.275C94.3048 189.424 85.3305 192.485 76.5448 192.485C75.7472 192.485 75.1006 191.86 75.1006 191.09C75.1006 190.319 75.7472 189.694 76.5448 189.694C84.6748 189.694 93.0236 186.849 99.3202 182.08C105.611 177.315 109.747 170.723 109.747 163.231C109.747 162.461 110.394 161.836 111.191 161.836Z" fill="white"/>
<path fill-rule="evenodd" clip-rule="evenodd" d="M47.7036 174.111C47.5846 173.456 46.993 172.959 46.2812 172.959C45.4835 172.959 44.8369 173.584 44.8369 174.354H46.2812C44.8369 174.354 44.8369 174.356 44.8369 174.358L44.8369 174.362L44.837 174.371L44.8373 174.387L44.8385 174.42C44.8395 174.442 44.8411 174.464 44.8432 174.487C44.8473 174.531 44.8535 174.577 44.8617 174.623C44.878 174.716 44.9027 174.814 44.9365 174.918C45.0033 175.124 45.1105 175.369 45.277 175.668C45.6076 176.261 46.2087 177.129 47.3152 178.402L47.3151 178.402L47.3265 178.414C54.4448 186.403 64.4952 192.484 76.5457 192.484C77.3434 192.484 77.99 191.859 77.99 191.089C77.99 190.318 77.3434 189.694 76.5457 189.694C65.5698 189.694 56.2611 184.162 49.5214 176.6C48.4919 175.416 48.0243 174.711 47.8203 174.345C47.7703 174.255 47.7383 174.19 47.7186 174.146C47.7123 174.132 47.7074 174.12 47.7036 174.111Z" fill="white"/>
<path fill-rule="evenodd" clip-rule="evenodd" d="M86.4871 137.484C86.8555 138.167 86.5805 139.01 85.873 139.365L51.2267 156.789C50.5192 157.145 49.647 156.879 49.2787 156.196C48.9104 155.513 49.1854 154.67 49.8929 154.314L84.5392 136.89C85.2467 136.535 86.1188 136.8 86.4871 137.484Z" fill="white"/>
<path fill-rule="evenodd" clip-rule="evenodd" d="M63.317 99.421C63.8919 98.8868 64.8061 98.9039 65.3591 99.4592L83.3956 117.572C83.9485 118.127 83.9308 119.011 83.356 119.545C82.7811 120.079 81.8669 120.062 81.3139 119.507L63.2774 101.394C62.7245 100.838 62.7422 99.9551 63.317 99.421Z" fill="white"/>
<path fill-rule="evenodd" clip-rule="evenodd" d="M46.3737 37.7741C46.6799 37.0626 47.5251 36.7255 48.2617 37.0213L74.2464 47.4559C74.983 47.7517 75.3318 48.5683 75.0257 49.2798C74.7195 49.9913 73.8742 50.3283 73.1377 50.0326L47.153 39.5979C46.4164 39.3022 46.0675 38.4856 46.3737 37.7741Z" fill="white"/>
<path fill-rule="evenodd" clip-rule="evenodd" d="M77.7028 73.111C78.1802 73.7283 78.0492 74.6026 77.4102 75.0638L60.087 87.5656C59.448 88.0268 58.543 87.9002 58.0656 87.2829C57.5882 86.6656 57.7193 85.7913 58.3583 85.3302L75.6814 72.8283C76.3205 72.3672 77.2255 72.4937 77.7028 73.111Z" fill="white"/>
<path fill-rule="evenodd" clip-rule="evenodd" d="M48.5569 104.908C49.2018 105.362 49.3439 106.234 48.8745 106.857L14.2281 152.829C13.7587 153.451 12.8553 153.589 12.2105 153.135C11.5657 152.682 11.4235 151.809 11.893 151.186L46.5393 105.215C47.0088 104.592 47.9121 104.454 48.5569 104.908Z" fill="white"/>
<path fill-rule="evenodd" clip-rule="evenodd" d="M43.2824 97.5173C43.6505 98.2009 43.3752 99.0433 42.6675 99.3989L2.11095 119.776C1.4033 120.131 0.531283 119.866 0.163237 119.182C-0.204809 118.498 0.0704893 117.656 0.778134 117.3L41.3347 96.9233C42.0424 96.5678 42.9144 96.8337 43.2824 97.5173Z" fill="white"/>
<path fill-rule="evenodd" clip-rule="evenodd" d="M11.9217 61.8654C12.4122 61.2578 13.3197 61.1493 13.9487 61.6232L46.3532 86.0363C46.9822 86.5102 47.0944 87.3869 46.6039 87.9945C46.1134 88.6021 45.2058 88.7105 44.5769 88.2367L12.1724 63.8236C11.5434 63.3497 11.4311 62.473 11.9217 61.8654Z" fill="white"/>
<path opacity="0.4" fill-rule="evenodd" clip-rule="evenodd" d="M197.91 69.7978C195.539 69.7978 193.616 71.6548 193.616 73.9455C193.616 76.2361 195.539 78.0931 197.91 78.0931C200.281 78.0931 202.203 76.2361 202.203 73.9455C202.203 71.6548 200.281 69.7978 197.91 69.7978ZM179.174 73.9455C179.174 63.9492 187.562 55.8457 197.91 55.8457C208.258 55.8457 216.646 63.9492 216.646 73.9455C216.646 83.9417 208.258 92.0452 197.91 92.0452C187.562 92.0452 179.174 83.9417 179.174 73.9455Z" fill="white"/>
<path opacity="0.4" fill-rule="evenodd" clip-rule="evenodd" d="M105.485 120.003C103.114 120.003 101.192 121.86 101.192 124.151C101.192 126.441 103.114 128.298 105.485 128.298C107.856 128.298 109.779 126.441 109.779 124.151C109.779 121.86 107.856 120.003 105.485 120.003ZM86.749 124.151C86.749 114.154 95.1375 106.051 105.485 106.051C115.833 106.051 124.221 114.154 124.221 124.151C124.221 134.147 115.833 142.25 105.485 142.25C95.1375 142.25 86.749 134.147 86.749 124.151Z" fill="white"/>
<path fill-rule="evenodd" clip-rule="evenodd" d="M36.0909 25.1361C30.5291 25.1361 26.0203 29.4917 26.0203 34.8646C26.0203 40.2375 30.5291 44.5931 36.0909 44.5931C41.6527 44.5931 46.1614 40.2375 46.1614 34.8646C46.1614 29.4917 41.6527 25.1361 36.0909 25.1361ZM23.1318 34.8646C23.1318 27.9506 28.9338 22.3457 36.0909 22.3457C43.248 22.3457 49.0499 27.9506 49.0499 34.8646C49.0499 41.7786 43.248 47.3835 36.0909 47.3835C28.9338 47.3835 23.1318 41.7786 23.1318 34.8646Z" fill="white"/>
<path opacity="0.4" fill-rule="evenodd" clip-rule="evenodd" d="M93.8689 52.9638C91.4977 52.9638 89.5754 54.8208 89.5754 57.1115C89.5754 59.4022 91.4977 61.2591 93.8689 61.2591C96.2402 61.2591 98.1624 59.4022 98.1624 57.1115C98.1624 54.8208 96.2402 52.9638 93.8689 52.9638ZM75.1328 57.1115C75.1328 47.1153 83.5212 39.0117 93.8689 39.0117C104.217 39.0117 112.605 47.1153 112.605 57.1115C112.605 67.1077 104.217 75.2112 93.8689 75.2112C83.5213 75.2112 75.1328 67.1077 75.1328 57.1115Z" fill="white"/>
</svg>
