<svg width="33" height="34" viewBox="0 0 33 34" fill="none" xmlns="http://www.w3.org/2000/svg">
<rect y="0.871094" width="33" height="33" rx="3.3" fill="white" fill-opacity="0.15"/>
<path d="M11.1801 13.9355C11.2094 13.7598 11.1215 13.584 11.0043 13.4668L9.68594 11.8848V11.6211H13.7875L16.9516 18.5938L19.7641 11.6211H23.6605V11.8848L22.5473 12.9688C22.4594 13.0273 22.4008 13.1445 22.4301 13.2617V21.2305C22.4008 21.3477 22.4594 21.4941 22.5473 21.5527L23.6605 22.6367V22.8711H18.0941V22.6367L19.2367 21.5234C19.3539 21.4062 19.3539 21.377 19.3539 21.2012V14.7852L16.1605 22.8711H15.7211L12.0297 14.7852V20.2051C12.0004 20.4102 12.059 20.6445 12.2348 20.8203L13.7289 22.6074V22.8418H9.51016V22.6074L11.0043 20.8203C11.1508 20.6445 11.2094 20.4102 11.1801 20.2051V13.9355Z" fill="white"/>
</svg>
