<svg width="33" height="34" viewBox="0 0 33 34" fill="none" xmlns="http://www.w3.org/2000/svg">
<rect y="0.871094" width="33" height="33" rx="3.3" fill="white" fill-opacity="0.15"/>
<path d="M22.582 11.7969C24.5156 14.668 25.4824 17.8906 25.1308 21.6113C25.1308 21.6113 25.1308 21.6406 25.1015 21.6406C23.8125 22.6074 22.3476 23.3398 20.7949 23.8086C20.7656 23.8086 20.7363 23.8086 20.7363 23.8086C20.414 23.3398 20.1211 22.8711 19.8574 22.373V22.3438C19.8574 22.3145 19.8574 22.3145 19.8867 22.2852C20.3554 22.1094 20.7949 21.9043 21.2343 21.6406C21.2636 21.6406 21.2636 21.6406 21.2636 21.6113C21.2636 21.582 21.2636 21.582 21.2343 21.5527C21.1464 21.4941 21.0586 21.4355 20.9707 21.3477H20.9414H20.9121C18.1289 22.6367 15.082 22.6367 12.2695 21.3477C12.2402 21.3477 12.2402 21.3477 12.2402 21.3477C12.2109 21.3477 12.2109 21.3477 12.2109 21.3477C12.123 21.4355 12.0351 21.4941 11.9472 21.5527C11.9179 21.582 11.9179 21.582 11.9179 21.6113C11.9179 21.6406 11.9179 21.6406 11.9472 21.6406C12.3574 21.9043 12.8261 22.1094 13.2949 22.2852C13.2949 22.3145 13.3242 22.3145 13.3242 22.3438V22.373C13.0605 22.8711 12.7675 23.3398 12.4453 23.8086C12.416 23.8086 12.416 23.8086 12.3867 23.8086C10.8046 23.3398 9.3398 22.6074 8.08004 21.6406C8.05074 21.6406 8.05074 21.6113 8.05074 21.6113C7.75777 18.3887 8.37301 15.1367 10.5996 11.7969C10.5996 11.7969 10.5996 11.7969 10.6289 11.7969C11.7129 11.2988 12.914 10.918 14.1152 10.7129C14.1152 10.7129 14.1152 10.7129 14.1445 10.7129H14.1738C14.3496 11.0059 14.4961 11.3281 14.6132 11.6211C15.2578 11.5332 15.9023 11.4746 16.5761 11.4746C17.25 11.4746 17.9238 11.5332 18.5683 11.6211C18.6855 11.3281 18.832 11.0059 19.0078 10.7129L19.0371 10.6836C19.0371 10.6836 19.0371 10.7129 19.0664 10.7129C20.2675 10.918 21.4687 11.2988 22.5527 11.7969C22.582 11.7969 22.582 11.7969 22.582 11.7969ZM13.7343 19.6484C14.5839 19.6484 15.2871 18.8574 15.2871 17.9199C15.2871 16.9531 14.6132 16.1914 13.7343 16.1914C12.8847 16.1914 12.1816 16.9531 12.1816 17.9199C12.1816 18.8574 12.8847 19.6484 13.7343 19.6484ZM19.4472 19.6484C20.3261 19.6484 21 18.8574 21 17.9199C21.0293 16.9531 20.3261 16.1914 19.4472 16.1914C18.5976 16.1914 17.9238 16.9531 17.9238 17.9199C17.9238 18.8574 18.5976 19.6484 19.4472 19.6484Z" fill="white"/>
</svg>
