<svg width="33" height="34" viewBox="0 0 33 34" fill="none" xmlns="http://www.w3.org/2000/svg">
<rect y="0.871094" width="33" height="33" rx="3.3" fill="white" fill-opacity="0.15"/>
<path d="M22.5473 14.1992C22.5473 14.3457 22.5473 14.4629 22.5473 14.6094C22.5473 18.6816 19.4711 23.3398 13.8168 23.3398C12.059 23.3398 10.4477 22.8418 9.1 21.9629C9.33437 21.9922 9.56875 22.0215 9.83242 22.0215C11.268 22.0215 12.5863 21.5234 13.641 20.7031C12.2934 20.6738 11.1508 19.7949 10.7699 18.5645C10.975 18.5938 11.1508 18.623 11.3559 18.623C11.6195 18.623 11.9125 18.5645 12.1469 18.5059C10.7406 18.2129 9.68594 16.9824 9.68594 15.4883V15.459C10.0961 15.6934 10.5941 15.8105 11.0922 15.8398C10.2426 15.2832 9.71523 14.3457 9.71523 13.291C9.71523 12.7051 9.86172 12.1777 10.1254 11.7383C11.6488 13.584 13.934 14.8145 16.4828 14.9609C16.4242 14.7266 16.3949 14.4922 16.3949 14.2578C16.3949 12.5586 17.7719 11.1816 19.4711 11.1816C20.35 11.1816 21.141 11.5332 21.727 12.1484C22.4008 12.002 23.0746 11.7383 23.6605 11.3867C23.4262 12.1191 22.9574 12.7051 22.3129 13.0859C22.9281 13.0273 23.5434 12.8516 24.0707 12.6172C23.6605 13.2324 23.1332 13.7598 22.5473 14.1992Z" fill="white"/>
</svg>
