<svg width="33" height="34" viewBox="0 0 33 34" fill="none" xmlns="http://www.w3.org/2000/svg">
<rect y="0.871094" width="33" height="33" rx="3.3" fill="white" fill-opacity="0.15"/>
<path fill-rule="evenodd" clip-rule="evenodd" d="M16.625 8.57227C12.0582 8.57227 8.35938 12.499 8.35938 17.347C8.35938 21.2298 10.7254 24.5094 14.011 25.672C14.4243 25.7488 14.5793 25.4856 14.5793 25.2552C14.5793 25.0468 14.5689 24.3558 14.5689 23.6209C12.4922 24.0268 11.9549 23.0835 11.7896 22.5899C11.6966 22.3376 11.2937 21.5589 10.9424 21.3505C10.6531 21.186 10.2398 20.7801 10.9321 20.7692C11.583 20.7582 12.0479 21.4053 12.2029 21.6686C12.9468 22.9957 14.135 22.6228 14.6103 22.3925C14.6826 21.8221 14.8996 21.4382 15.1372 21.2189C13.2981 20.9995 11.3763 20.2427 11.3763 16.8863C11.3763 15.9321 11.6966 15.1424 12.2236 14.5281C12.1409 14.3088 11.8516 13.4093 12.3062 12.2028C12.3062 12.2028 12.9985 11.9725 14.5793 13.1022C15.2405 12.9048 15.9431 12.8061 16.6457 12.8061C17.3482 12.8061 18.0508 12.9048 18.7121 13.1022C20.2929 11.9615 20.9851 12.2028 20.9851 12.2028C21.4397 13.4093 21.1504 14.3088 21.0678 14.5281C21.5947 15.1424 21.915 15.9211 21.915 16.8863C21.915 20.2536 19.9829 20.9995 18.1438 21.2189C18.4434 21.4931 18.7017 22.0196 18.7017 22.8422C18.7017 24.0158 18.6914 24.9591 18.6914 25.2552C18.6914 25.4856 18.8464 25.7598 19.2597 25.672C22.5246 24.5094 24.8906 21.2189 24.8906 17.347C24.8906 12.499 21.1918 8.57227 16.625 8.57227Z" fill="white"/>
<path fill-rule="evenodd" clip-rule="evenodd" d="M16.625 8.57227C12.0582 8.57227 8.35938 12.499 8.35938 17.347C8.35938 21.2298 10.7254 24.5094 14.011 25.672C14.4243 25.7488 14.5793 25.4856 14.5793 25.2552C14.5793 25.0468 14.5689 24.3558 14.5689 23.6209C12.4922 24.0268 11.9549 23.0835 11.7896 22.5899C11.6966 22.3376 11.2937 21.5589 10.9424 21.3505C10.6531 21.186 10.2398 20.7801 10.9321 20.7692C11.583 20.7582 12.0479 21.4053 12.2029 21.6686C12.9468 22.9957 14.135 22.6228 14.6103 22.3925C14.6826 21.8221 14.8996 21.4382 15.1372 21.2189C13.2981 20.9995 11.3763 20.2427 11.3763 16.8863C11.3763 15.9321 11.6966 15.1424 12.2236 14.5281C12.1409 14.3088 11.8516 13.4093 12.3062 12.2028C12.3062 12.2028 12.9985 11.9725 14.5793 13.1022C15.2405 12.9048 15.9431 12.8061 16.6457 12.8061C17.3482 12.8061 18.0508 12.9048 18.7121 13.1022C20.2929 11.9615 20.9851 12.2028 20.9851 12.2028C21.4397 13.4093 21.1504 14.3088 21.0678 14.5281C21.5947 15.1424 21.915 15.9211 21.915 16.8863C21.915 20.2536 19.9829 20.9995 18.1438 21.2189C18.4434 21.4931 18.7017 22.0196 18.7017 22.8422C18.7017 24.0158 18.6914 24.9591 18.6914 25.2552C18.6914 25.4856 18.8464 25.7598 19.2597 25.672C22.5246 24.5094 24.8906 21.2189 24.8906 17.347C24.8906 12.499 21.1918 8.57227 16.625 8.57227Z" fill="white"/>
</svg>
